<svg id="Layer_1" data-name="Layer 1" xmlns="http://www.w3.org/2000/svg" viewBox="0 0 122.56 138.1"><defs><style>.cls-1{fill:#fed700;}</style></defs><path class="cls-1" d="M294.51,253.35c8.53,8.27,11.18,19.14,10.38,30.74-.05.65-1.05.66-1,0,.32-6.87-.19-14.31-3.44-20.53-1.09-2.1-5.88-6.63-5.75-8.45a14.85,14.85,0,0,1-.43,3.19c-1,3.24-3.22,4.36-6.4,3.13-4.89-1.9-9-6.78-12.45-10.51-3.14-3.4-6.32-8.65-10.31-11.09a.78.78,0,0,1,.19-1.42,27.45,27.45,0,0,1,4.95-.54c-5.31-3.6-8.77-10.78-14.67-13.54-.64-.29-.45-1.11,0-1.45,7.67-5.85,17.18-3.78,24.35,1.85.86.68-.35,1.88-1.2,1.21-3.91-3.08-9.22-5.63-14.35-4.94.6-.08-8.2,1.54-6.56,2.53a18.36,18.36,0,0,1,2.7,1.84c4.61,4,8.5,12.12,15.05,12.94l.52.08c.88.17.68,1.65-.21,1.57a1.66,1.66,0,0,0-.22,0h0l-.24,0c-.44-.06-.88-.13-1.3-.23a21.43,21.43,0,0,0-6.64,0c4,3.18,7.17,8.38,10.56,11.9,4.46,4.65,14.94,15.25,15.28,2.34A.71.71,0,0,1,294.51,253.35Zm38.26-36.66c0-.7-1.06-1.07-1.38-.37-2.52,5.46-7.65,9.91-11.07,15.05a147.76,147.76,0,0,0-17.41-24.2c-5.2-5.88-13-14-21.56-13.64-.22-.43-.46-.85-.73-1.29a.49.49,0,0,0-.77-.09c-6.42-7.67-19.17-11.07-28.26-12.33-6.33-.88-12.11-.34-17.92-3.46-6.27-3.37-10.73-9.08-15.67-14.12a18.92,18.92,0,0,0-1.49-1.48c-.53-.51-1.06-1-1.6-1.49a.53.53,0,0,0-.43-.14,34.22,34.22,0,0,0-3-1.92.84.84,0,0,0-.84,1.45c6.27,3.6,8.94,7.89,10.34,14.78,1,5,2.12,10.41,5.42,14.45,6.06,7.46,14.79,6.82,23.24,8.52-2.86.33-5.69.83-8.54,1.4-.79.15-.68,1.26,0,1.48,10.2,3.24,10.54,19.87,22.43,20,7.51.11,17.4-5.86,10.08-13.33-.43-.44-1.09.22-.67.67,8.45,9-6.8,12.06-12.06,10.77-4.16-1-6.58-5.63-8.56-9-2.3-3.91-4.6-7.51-8.45-9.59a69.66,69.66,0,0,1,10.39-1.24.78.78,0,0,0,.21-1.53c-5.08-1.77-10.3-2-15.58-2.81-8.13-1.23-12.65-6.88-15-14.45-1.17-3.79-1.32-8-2.83-11.64,5.79,6.2,11.72,12.26,20.62,13.35,12.95,1.6,29.24,2.61,37.94,13.94a.62.62,0,0,0,.24.31c.18.24.37.45.54.7a.74.74,0,0,0,.68.32c3.9,11.42-4.16,23.84,3.56,34.52,4.39,6.06,11.78,7,16.09.61.5-.74-.67-1.66-1.24-1-4.85,6-10.42,3.63-14.41-1.76-3.35-4.51-2.9-10.19-2.19-15.42.9-6.56,1.63-12.21-.95-18,8.9.18,16.74,9.81,21.94,15.93a139.67,139.67,0,0,1,15.4,22.37,16.65,16.65,0,0,0-2.34,7.59c-.11,2.42,1.17,5.66,3.59,6.43.68.21,2.54-1.36,1.88-1.69a.21.21,0,0,0,.29-.29.41.41,0,0,1,0-.09.26.26,0,0,0-.34-.09c-3.38,2.34-4-4.78-3.64-6.85a11.8,11.8,0,0,1,1.42-3.6.86.86,0,0,0,1.45-.93c-.13-.24-.27-.48-.41-.71,1-1.39,2-2.69,3-3.86,2.47-3.08,5.14-6,7.17-9.31.06,24.93,0,49.87,0,74.8a.76.76,0,0,0,1.52,0C332.78,268.54,332.7,242.62,332.77,216.69Zm-14.51,35.43a.93.93,0,0,0-1.57-.65c-8.87,8.49-11.5-2.66-12-10.31-.47-7.46,0-16.62,3.41-23.43a.33.33,0,0,0-.57-.34c-5.36,7.82-5.23,20.57-3.91,29.53,1.26,8.54,6.39,12.06,12.82,7.15.12,6.71.55,27.51,1.07,27.62A.7.7,0,0,0,317,283c2.94,1.63,2.77-3,2.69-4.65C319.29,269.59,318.4,260.87,318.26,252.12Z" transform="translate(-210.23 -157.09)"/></svg>