<svg id="Layer_1" data-name="Layer 1" xmlns="http://www.w3.org/2000/svg" viewBox="0 0 160.02 217.01"><defs><style>.cls-1{fill:#e7be66;}</style></defs><path class="cls-1" d="M323.55,245.09c-1.92,2.33-3.86,2.74-6.31,3.25a28.58,28.58,0,0,0-3.07.76c3.86-12.52,1-28-1.12-39.64-.15-.86-.31-1.7-.45-2.52l-.88-4.88-1.7,4.66c-1.61,4.42-8.71,6.6-16.93,9.12l-4.45,1.39c12.25-14.42,0-32.65-5.55-40.89l-2.55-3.79.1,4.57a6.74,6.74,0,0,1-1,3.8c-1.28-7-7.8-14.79-14.64-23-8.53-10.25-17.35-20.86-17.35-30.74h-2.77c0,9.88-8.81,20.49-17.34,30.75-6.73,8.09-13.14,15.79-14.56,22.67a6.78,6.78,0,0,1-.78-3.45l.1-4.57-2.55,3.79c-5.54,8.24-17.79,26.47-5.55,40.89l-4.45-1.39c-8.22-2.52-15.32-4.7-16.93-9.12l-1.69-4.66-.88,4.88c-.15.82-.3,1.66-.46,2.52-2.13,11.61-5,27.12-1.12,39.64a28.58,28.58,0,0,0-3.07-.76c-2.45-.51-4.39-.92-6.31-3.25l-2.9-3.54.54,4.54c2.89,24.39,14.92,34.59,19.95,37.85a33.88,33.88,0,0,0,18.74,5.25A50.94,50.94,0,0,0,217,287.82a15.3,15.3,0,0,0-3.58,7.85c-.83,6,1.84,12.82,8.19,20.79l2.49,3.13-.11-4a3.41,3.41,0,0,1,0-.66c1.46,3.79,5.46,7.86,9.64,12.11,5.42,5.51,11.57,11.75,11.57,17.12H248c0-5.37,6.15-11.61,11.57-17.12,4.18-4.25,8.18-8.32,9.64-12.11a3.41,3.41,0,0,1,.05.66l-.11,4,2.49-3.12c6.34-8,9-14.77,8.19-20.79a15.37,15.37,0,0,0-3.49-7.75,50.76,50.76,0,0,0,10.91,1.27A33.87,33.87,0,0,0,306,283.94c5-3.26,17.07-13.46,20-37.85l.54-4.54ZM210.14,180.7a14.18,14.18,0,0,0,2.31,3.79,11.84,11.84,0,0,1,3.07,8.64l2.68,0a14.16,14.16,0,0,0-2.94-9.41h.14c-.33-6.62,6.74-15.13,14.24-24.14,6.83-8.23,13.85-16.67,16.67-25.09,2.82,8.42,9.83,16.86,16.67,25.09,7.49,9,14.57,17.52,14.23,24.14l.41,0a14.15,14.15,0,0,0-2.93,9.4l2.67,0a11.84,11.84,0,0,1,3.07-8.64,14.46,14.46,0,0,0,2.32-3.79c8.42,13.23,14,27.75-.32,38.71C273.52,222.87,265,228,261.56,238c-.64-.78-1.28-1.56-1.94-2.34-5.72-6.88-11.64-14-11.64-20.53h-2.73c0,6.53-5.92,13.65-11.64,20.53l-2.19,2.64c-3.42-10.18-12-15.41-21-18.91C196.15,208.45,201.71,193.93,210.14,180.7Zm57.74,79.1a7.69,7.69,0,0,1,2-5.58,12.46,12.46,0,0,0,1.28-1.91c8.32,13.56,8.19,23.86-.37,31.44h-11c4-3.15,6-6.3,6.2-9.56.34-5.8-5.35-10.55-10.37-14.73-3.55-3-7.21-6-7.69-8.67l0-.48h-2.76a3.87,3.87,0,0,0,0,.48c-.48,2.66-4.15,5.71-7.69,8.67-5,4.18-10.71,8.93-10.38,14.73.19,3.26,2.23,6.41,6.2,9.56H222.45c-8.56-7.58-8.69-17.88-.37-31.44a12,12,0,0,0,1.28,1.91,7.69,7.69,0,0,1,2,5.58l2.67,0a9.92,9.92,0,0,0-1.91-6.41h0c-.22-4.31,4.52-10,9.53-16,4.36-5.24,8.82-10.62,11-16,2.14,5.4,6.6,10.78,11,16,5,6,9.75,11.73,9.53,16h0a10,10,0,0,0-1.9,6.41ZM252,283.37H240.47c-3.66-2.52-5.6-4.95-5.78-7.23-.25-3.4,3.33-6.6,6.79-9.69a43.92,43.92,0,0,0,4.34-4.24l1.55,0a43.8,43.8,0,0,0,4.08,4.12c3.32,3.08,6.75,6.27,6.47,9.65C257.72,278.34,255.73,280.81,252,283.37Zm8.57-7.12c.4-4.69-3.69-8.49-7.31-11.84-2.43-2.26-5-4.6-5.31-6.59a9.4,9.4,0,0,0-2.7,0c-.38,2-3,4.36-5.56,6.64-3.76,3.37-8,7.18-7.67,11.9a8.22,8.22,0,0,0,1.32,3.82c-2.2-2.11-3.37-4.16-3.49-6.13-.25-4.46,4.66-8.56,9.42-12.53a46.18,46.18,0,0,0,6.58-6.2h1.49a46.18,46.18,0,0,0,6.58,6.2c4.76,4,9.68,8.07,9.42,12.53-.14,2.5-2,5.13-5.48,7.84A9.66,9.66,0,0,0,260.58,276.25Zm-72.2,5.44c-12.43-8-16.78-24.08-18.23-32.39A15.31,15.31,0,0,0,175.1,251a16.48,16.48,0,0,1,4.9,1.6c0,.11.09.22.14.33l.23-.1a15.07,15.07,0,0,1,3.81,3.37l2-1.72a18.3,18.3,0,0,0-4.12-3.74c-4.78-11.92-2-27.91.2-39.94,3.33,3.54,9.63,5.47,16.7,7.64,12.52,3.84,26.69,8.2,30.38,22.47a32.26,32.26,0,0,0-5.34,8.95A4.49,4.49,0,0,1,224,249l.11-4.58-2.56,3.8c-10.22,15.2-11,27.39-2.22,36.27C207,287.92,196.59,287,188.38,281.69ZM277.16,296c.65,4.74-1.31,10.2-6,16.63A10.72,10.72,0,0,0,269.8,311a5.65,5.65,0,0,1-1.92-4.5l-2.67,0a7.81,7.81,0,0,0,1.89,5.53c.13,3.48-4.74,8.43-9.46,13.22-4.39,4.47-8.88,9-11,13.67-2.14-4.63-6.63-9.2-11-13.67-4.72-4.79-9.59-9.74-9.46-13.22a7.81,7.81,0,0,0,1.89-5.53l-2.67,0a5.65,5.65,0,0,1-1.92,4.5,10.72,10.72,0,0,0-1.35,1.71c-4.7-6.43-6.67-11.89-6-16.63.5-3.62,2.62-6.85,6.32-9.61h48.35l.17.05C274.56,289.23,276.66,292.44,277.16,296Zm27.34-14.35c-8.15,5.26-18.46,6.22-30.67,2.86,8.82-8.89,8.11-21.11-2.14-36.35l-2.56-3.8.11,4.57a4.54,4.54,0,0,1-.06.85c-1-2.94-3.07-6-5.6-9.28,3.83-14,17.87-18.33,30.29-22.14,7.07-2.17,13.37-4.1,16.7-7.64,2.2,12,5,28,.2,39.94a18.3,18.3,0,0,0-4.12,3.74l2.06,1.72a14.88,14.88,0,0,1,3.8-3.37l.24.1c0-.11.09-.22.14-.33a16.34,16.34,0,0,1,4.89-1.6,15.31,15.31,0,0,0,5-1.66C321.28,257.61,316.93,273.67,304.5,281.69Z" transform="translate(-166.43 -127.15)"/></svg>