<svg id="Layer_1" data-name="Layer 1" xmlns="http://www.w3.org/2000/svg" viewBox="0 0 160.49 141.38"><defs><style>.cls-1{fill:#e7be66;}</style></defs><path class="cls-1" d="M330.4,268.29a62.58,62.58,0,0,0-24.57.44c3-10,2.41-16-2-23.94-3.87-7-10.59-13.41-16.52-19.09-1.22-1.16-2.4-2.3-3.53-3.4-1.63-1.61-3.25-3.18-4.86-4.74-5.11-5-9.94-9.67-14.85-14.93l-1.17-1.25c-6.16-6.56-12-12.75-10.84-21.92l-1.17-.15a6.27,6.27,0,0,0-1.5,0l-1.17.15c1.14,9.17-4.68,15.37-10.84,21.92l-1.17,1.25c-4.92,5.27-9.75,10-14.87,14.94l-4.84,4.73c-1.13,1.11-2.32,2.24-3.54,3.41-5.93,5.68-12.65,12.11-16.51,19.08-4.39,7.91-4.95,14-2,23.94a62.63,62.63,0,0,0-24.58-.44l.23,1.31v1.34c4.51,0,7.33,10.38,9.59,18.71,1.59,5.83,3.08,11.34,5.17,14.22,6.93,9.52,13.64,14.73,20.51,15.92a53.57,53.57,0,0,0,9.21.85,37.61,37.61,0,0,0,12.42-2c8.54-2.92,18.75-10.75,22.59-13.69l.53-.4.53.4a144.6,144.6,0,0,0,12,8.43,1.72,1.72,0,0,0,.39.29l0,0a53.93,53.93,0,0,0,10.13,5,37.61,37.61,0,0,0,12.42,2,53.57,53.57,0,0,0,9.21-.85c6.87-1.19,13.58-6.4,20.5-15.92,2.09-2.87,3.59-8.38,5.17-14.22,2.27-8.33,5.08-18.71,9.59-18.71V269.6Zm-131.59-22.2c3.67-6.61,10.23-12.9,16-18.45,1.22-1.17,2.42-2.32,3.55-3.43,1.63-1.6,3.24-3.16,4.84-4.72,5.14-5,10-9.72,15-15l1.16-1.23c4.42-4.71,8.94-9.52,10.81-15.56,1.87,6,6.39,10.85,10.81,15.55l1.16,1.24c5,5.32,9.81,10,14.94,15,1.61,1.56,3.22,3.13,4.85,4.73,1.14,1.11,2.33,2.26,3.56,3.43,5.79,5.55,12.36,11.83,16,18.45,4.25,7.66,4.57,13.23,1.27,23.42a50.9,50.9,0,0,0-13.9,6.36c1.78-6.74,3.24-16.35.59-21.88-2.32-4.84-10.94-11.66-20.07-18.89-7.67-6.06-18.07-14.29-18.52-17.59a4.14,4.14,0,0,0,0-.61v-.1H248.2v.11a3.2,3.2,0,0,0,0,.62c-.46,3.49-11,12.25-18.87,18.71-8.3,6.86-16.15,13.35-18.46,17.7-2.67,5-1.54,14.26.54,21.92a50.55,50.55,0,0,0-13.87-6.35C194.25,259.31,194.56,253.74,198.81,246.09Zm76.57,46.2a15.14,15.14,0,0,0-2.45-5.59c-2.07-2.89-5.67-5.48-9.47-8.22-5.41-3.89-11-7.92-11.37-12.44l-1.45.12-1.45-.12c-.37,4.52-6,8.55-11.37,12.44-3.8,2.74-7.4,5.33-9.47,8.22a16.41,16.41,0,0,0-2.87,8.28,23.91,23.91,0,0,0-6.57-13,47.83,47.83,0,0,0-3.92-3.5c-2.7-8.21-4.28-18.51-1.75-23.27,2.06-3.88,10.06-10.49,17.8-16.89,9.27-7.66,15.86-13.29,18.53-17.45,2.69,4,9.16,9.23,18.17,16.35,8.49,6.72,17.26,13.66,19.31,17.94,2.32,4.85.9,15.34-1.72,23.32a47.83,47.83,0,0,0-3.92,3.5A24.81,24.81,0,0,0,275.38,292.29Zm-3.84,17.84c-.41,1.36-1,3.31-1.4,4.29-1.59-.76-3.19-1.63-4.76-2.56.15-.38.33-.81.49-1.2.79-1.89,1.32-3.16,1.47-3.65a22.6,22.6,0,0,0,1.17-5.84v-.3c.19-3.79.38-7.72-2.07-11.16-1.48-2.07-4-3.91-6.72-5.84-3.71-2.68-7.55-5.44-7.79-8.42l-1.42.12-1.41-.12c-.25,3-4.08,5.74-7.79,8.42-2.69,1.93-5.24,3.77-6.73,5.84-2.45,3.43-2.25,7.35-2.07,11.14l0,.32a22.51,22.51,0,0,0,1.17,5.84c.2.65,1,3.23,1.49,4.69-1.38.83-2.8,1.62-4.21,2.33-.37-1-.9-2.7-1.26-3.9a29.49,29.49,0,0,1-1.54-7.55l0-.45c-.25-5.08-.49-9.89,2.36-13.87,1.81-2.54,5.23-5,8.86-7.61,4.5-3.24,9.1-6.56,11.25-10.51,2.15,3.95,6.75,7.27,11.25,10.51,3.62,2.61,7.05,5.07,8.86,7.61,2.84,4,2.61,8.79,2.36,13.88l0,.44A29.1,29.1,0,0,1,271.54,310.13Zm-45.37,6c-6.13,2.1-12.39,2.43-20.3,1.06-6.16-1.07-12.31-5.93-18.8-14.87-1.8-2.47-3.24-7.75-4.75-13.34-2-7.45-4.1-15.07-7.64-18.63,16.6-1.77,31.85,3.05,42.33,13.53,4.47,4.46,8.34,13.35,4,18.43a8.59,8.59,0,0,1-7.26,2.73,13.22,13.22,0,0,1-10-5.58,5.3,5.3,0,0,1-.23-4.05,4.91,4.91,0,0,1,2.6-3.2l-1-2.46a7.45,7.45,0,0,0-4.12,4.9,7.88,7.88,0,0,0,.57,6.3,15.79,15.79,0,0,0,12,6.76c.29,0,.59,0,.88,0a11,11,0,0,0,8.58-3.69,10.47,10.47,0,0,0,2.31-4.82c0,1,.07,2,.12,3.06l0,.45a32,32,0,0,0,1.66,8.2c.59,1.95,1,3.32,1.37,4.26C227.74,315.52,226.94,315.84,226.17,316.1Zm25.42-13.84s-1.17-1-1.43-.93c-.26-.09-1.43.93-1.43.93l-.72.55c-2.06,1.58-6,4.59-10.46,7.44-.47-1.47-1.11-3.47-1.27-4a19.84,19.84,0,0,1-1.07-5.19v-.32c-.18-3.64-.34-6.78,1.57-9.45,1.23-1.72,3.6-3.43,6.11-5.23,3-2.13,6-4.32,7.64-6.9,1.66,2.58,4.68,4.77,7.64,6.9,2.51,1.8,4.88,3.51,6.11,5.23,1.92,2.68,1.76,5.83,1.58,9.47l0,.3a19.42,19.42,0,0,1-1.06,5.19c-.12.4-.87,2.21-1.37,3.41q-.18.42-.33.81c-4.59-2.92-8.65-6-10.75-7.64ZM318,289c-1.52,5.59-2.95,10.87-4.75,13.34-6.5,8.94-12.65,13.8-18.8,14.87-7.91,1.37-14.17,1-20.3-1.06-.51-.17-1-.37-1.55-.58.38-.94.84-2.4,1.51-4.61a32.36,32.36,0,0,0,1.65-8.2l0-.44,0-.49a10,10,0,0,0,1.45,2.23,10.94,10.94,0,0,0,8.58,3.7l.88,0a15.77,15.77,0,0,0,12-6.76,7.88,7.88,0,0,0,.58-6.3,7.48,7.48,0,0,0-4.12-4.9l-1.06,2.46a4.93,4.93,0,0,1,2.61,3.2,5.25,5.25,0,0,1-.24,4.05,13.2,13.2,0,0,1-9.95,5.58,8.55,8.55,0,0,1-7.26-2.73c-4.33-5.08-.46-14,4-18.43,10.49-10.48,25.73-15.3,42.34-13.53C322.1,273.88,320,281.5,318,289Z" transform="translate(-169.91 -179.27)"/></svg>