<svg id="Layer_1" data-name="Layer 1" xmlns="http://www.w3.org/2000/svg" viewBox="0 0 39.48 39.47"><defs><style>.cls-1{fill:#231f20;}</style></defs><path class="cls-1" d="M246.59,227.67a3.39,3.39,0,1,1,0-4.8A3.39,3.39,0,0,1,246.59,227.67Z" transform="translate(-224.39 -205.58)"/><path class="cls-1" d="M244.2,231.27a6,6,0,1,1,4.24-1.75,6,6,0,0,1-4.24,1.75Zm0-11a5,5,0,1,0,3.51,1.45,5,5,0,0,0-3.51-1.45Z" transform="translate(-224.39 -205.58)"/><path class="cls-1" d="M250,219.48a8.19,8.19,0,1,0,0,11.58A8.18,8.18,0,0,0,250,219.48Zm-10.61,10.61a6.81,6.81,0,1,1,9.63,0A6.82,6.82,0,0,1,239.38,230.09Z" transform="translate(-224.39 -205.58)"/><path class="cls-1" d="M251.4,213.9s-.94-1.08.39-2.71c0,0-4.19.08-4.62,5.06,0,0,.69.54,1.81-1.3S251.4,213.9,251.4,213.9Z" transform="translate(-224.39 -205.58)"/><path class="cls-1" d="M254.12,219.52c1.44-1.52.3-4.47.3-4.47s-2.95-1.15-4.47.3-.53,2.07,1.94,2.23C252.05,220,252.67,221,254.12,219.52Z" transform="translate(-224.39 -205.58)"/><path class="cls-1" d="M258,216.21c1.39-2.15.71-3.41.71-3.41l-.87,1.23.3-2.74-2.75.29,1.23-.86s-1.25-.68-3.41.7.13,2.58.13,2.58c1.46-.61,2.05,0,2.05,0s.65.58,0,2.05C255.46,216.09,256.66,218.37,258,216.21Z" transform="translate(-224.39 -205.58)"/><path class="cls-1" d="M255.57,218.07s1.08.94,2.7-.4c0,0-.07,4.19-5,4.63,0,0-.55-.69,1.3-1.81S255.57,218.07,255.57,218.07Z" transform="translate(-224.39 -205.58)"/><path class="cls-1" d="M255.57,232.47s1.08-.94,2.7.4c0,0-.07-4.19-5-4.63,0,0-.55.69,1.3,1.81S255.57,232.47,255.57,232.47Z" transform="translate(-224.39 -205.58)"/><path class="cls-1" d="M250,235.19c1.52,1.45,4.47.3,4.47.3s1.14-3-.3-4.46-2.07-.53-2.23,1.94C249.42,233.12,248.43,233.75,250,235.19Z" transform="translate(-224.39 -205.58)"/><path class="cls-1" d="M253.25,239.12c2.16,1.38,3.41.7,3.41.7l-1.23-.86,2.75.29-.3-2.74.87,1.23s.68-1.26-.71-3.41-2.58.12-2.58.12c.62,1.47,0,2.06,0,2.06s-.59.64-2.05,0C253.38,236.54,251.1,237.73,253.25,239.12Z" transform="translate(-224.39 -205.58)"/><path class="cls-1" d="M251.4,236.64s-.94,1.08.39,2.71c0,0-4.19-.07-4.62-5.06,0,0,.69-.54,1.81,1.3S251.4,236.64,251.4,236.64Z" transform="translate(-224.39 -205.58)"/><path class="cls-1" d="M237,236.64s.94,1.08-.4,2.71c0,0,4.19-.07,4.62-5.06,0,0-.68-.54-1.8,1.3S237,236.64,237,236.64Z" transform="translate(-224.39 -205.58)"/><path class="cls-1" d="M234.27,231c-1.44,1.51-.3,4.46-.3,4.46s2.95,1.15,4.47-.3.53-2.07-1.94-2.23C236.35,230.5,235.72,229.51,234.27,231Z" transform="translate(-224.39 -205.58)"/><path class="cls-1" d="M230.35,234.33c-1.39,2.15-.71,3.41-.71,3.41l.87-1.23-.29,2.74L233,239l-1.23.86s1.26.68,3.41-.7-.12-2.58-.12-2.58c-1.47.61-2.06,0-2.06,0s-.65-.59,0-2.06C232.93,234.45,231.74,232.17,230.35,234.33Z" transform="translate(-224.39 -205.58)"/><path class="cls-1" d="M232.83,232.47s-1.09-.94-2.71.4c0,0,.07-4.19,5.06-4.63,0,0,.54.69-1.3,1.81S232.83,232.47,232.83,232.47Z" transform="translate(-224.39 -205.58)"/><path class="cls-1" d="M232.83,218.07s-1.09.94-2.71-.4c0,0,.07,4.19,5.06,4.63,0,0,.54-.69-1.3-1.81S232.83,218.07,232.83,218.07Z" transform="translate(-224.39 -205.58)"/><path class="cls-1" d="M238.44,215.35c-1.52-1.45-4.47-.3-4.47-.3s-1.14,2.95.3,4.47,2.08.52,2.23-1.94C239,217.42,240,216.79,238.44,215.35Z" transform="translate(-224.39 -205.58)"/><path class="cls-1" d="M235.14,211.42c-2.15-1.38-3.41-.7-3.41-.7l1.23.86-2.74-.29.29,2.74-.87-1.23s-.68,1.26.71,3.41,2.58-.12,2.58-.12c-.62-1.47,0-2.05,0-2.05s.59-.65,2.06,0C235,214,237.29,212.81,235.14,211.42Z" transform="translate(-224.39 -205.58)"/><path class="cls-1" d="M237,213.9s.94-1.08-.4-2.71c0,0,4.19.08,4.62,5.06,0,0-.68.54-1.8-1.3S237,213.9,237,213.9Z" transform="translate(-224.39 -205.58)"/><path class="cls-1" d="M244.2,205.58c-2.73,10.22,0,10.35,0,10.35S247.27,215.89,244.2,205.58Z" transform="translate(-224.39 -205.58)"/><path class="cls-1" d="M263.86,225.31c-10.07-2.39-10.35,0-10.35,0S253.64,228.05,263.86,225.31Z" transform="translate(-224.39 -205.58)"/><path class="cls-1" d="M244.37,245.05c2.55-10-.17-10.39-.17-10.39S241.49,234.85,244.37,245.05Z" transform="translate(-224.39 -205.58)"/><path class="cls-1" d="M224.39,225.31c10.37,2.5,10.58,0,10.58,0S234.7,222.25,224.39,225.31Z" transform="translate(-224.39 -205.58)"/><path class="cls-1" d="M242.14,213.37a.71.71,0,1,1,0-1A.71.71,0,0,1,242.14,213.37Z" transform="translate(-224.39 -205.58)"/><path class="cls-1" d="M247.18,213.51a.72.72,0,0,1-.54-1.33.72.72,0,0,1,.54,1.33Z" transform="translate(-224.39 -205.58)"/><path class="cls-1" d="M256.08,223.11a.72.72,0,0,1,0-1,.71.71,0,0,1,1,0,.7.7,0,0,1,0,1A.71.71,0,0,1,256.08,223.11Z" transform="translate(-224.39 -205.58)"/><path class="cls-1" d="M256,228a.72.72,0,0,1,.4-.93.72.72,0,0,1,.53,1.33A.72.72,0,0,1,256,228Z" transform="translate(-224.39 -205.58)"/><path class="cls-1" d="M246.23,237.18a.71.71,0,1,1,0,1A.71.71,0,0,1,246.23,237.18Z" transform="translate(-224.39 -205.58)"/><path class="cls-1" d="M241.36,237a.72.72,0,0,1,.93.4.72.72,0,0,1-1.33.53A.73.73,0,0,1,241.36,237Z" transform="translate(-224.39 -205.58)"/><path class="cls-1" d="M232.29,227.31a.71.71,0,0,1,0,1,.72.72,0,0,1-1,0,.71.71,0,0,1,0-1A.72.72,0,0,1,232.29,227.31Z" transform="translate(-224.39 -205.58)"/><path class="cls-1" d="M232.47,222.39a.71.71,0,0,1-.41.92.7.7,0,0,1-.92-.4.71.71,0,0,1,.4-.93A.72.72,0,0,1,232.47,222.39Z" transform="translate(-224.39 -205.58)"/></svg>