<svg id="Layer_1" data-name="Layer 1" xmlns="http://www.w3.org/2000/svg" viewBox="0 0 116.19 118.57"><defs><style>.cls-1{fill:#fed700;}</style></defs><path class="cls-1" d="M318.89,177.45a.4.4,0,0,0-.62.48c2.12,3.79,1.07,10.22.88,14.35-.25,5.67-.75,11.39-1.55,17a37.68,37.68,0,0,0-5.33,4.49,15.35,15.35,0,0,0,0-10.43c-.09-3.57-.53-7.17-.54-10.75,0-4.27.52-8.62-.27-12.84a.17.17,0,0,0-.33,0c-.87,4.19-.79,8.58-.93,12.84-.07,2.24-.15,4.59,0,6.9a18,18,0,0,0-8.71-6.25c.37-4.73-.55-9.78-.72-14.48a.44.44,0,0,0-.88,0,114.42,114.42,0,0,0,.27,14.09,20,20,0,0,0-12.09.66,1,1,0,0,0-.23,1.72c7.51,4.91,11.93,11.16,10.39,19.92l-.42-.47a.88.88,0,0,0-1.45.39c-.75,1.88-4.93,6.38-6.32,9.79-.1-1.12-.15-2.23-.14-3.3a1.06,1.06,0,0,0-2-.53,15.3,15.3,0,0,1-4.27,5c13.23-20.15-24.91-40.51-43.11-34.6a1,1,0,0,0,.25,1.91c15.82-.32,8,16.4,7.26,26.45-1.13-1-2.33-1.9-3.55-2.93a.81.81,0,0,0-1.35.78c2.23,10.69-7.74,18.91-3,29.74.76,1.77,4.5,9.32,7.44,7.55.19,3.15,2.51,4.94,6.1,2.72,0,0,.06-.06.09-.09,0,6.45-8.21,9.73-12.21,13.85a.42.42,0,0,0-.05.51A21,21,0,0,0,235,275c2.38-9.17-1.73-23.51-12.69-19.83a.87.87,0,0,0,0,1.67c8.42,2.06,3.52,10.92-.22,15.12a20.27,20.27,0,0,1-8.13,5.56c-3.74,1.37-5.77-.58-9.09-1.45a.31.31,0,0,0-.37.38c1.08,2.94,5.51,3.61,8.23,3.07,4.51-.9,8.2-3.71,11.22-7.07,4.09-4.57,7.16-12.65,1.71-16.1,8.59.07,10,15.61,5.94,21.6-.73,1.07,1,2.1,1.73,1a1.05,1.05,0,0,0,.07-.11c2.5-1.18,4.42-3.11,6.92-4.3-2.54,6.47-2,15.34-9.16,18.22-2.65,1.06-8.35,1.91-8.62-2.26-.23-3.55,2.94-2.94,4.91-1.6a.62.62,0,0,0,.85-.85c-4.3-6.25-11.14,2.76-5.21,6.74,3.09,2.07,7.84.88,11.17-1.21a1.2,1.2,0,0,0,1.12-.21c9.24-7.34,23.37-3.06,32.35-11.5a1.18,1.18,0,0,0,.17-.22c8-1.73,14.82-7,16.44-15,9.95-2.3,18.83-10.51,22.7-19.79.32-.77-.53-1.29-1.17-1.23,11.21-6.35,13-23.3,13.65-35.58a.92.92,0,0,0-.86-.91,146.66,146.66,0,0,0,1.67-18.37C320.48,187.37,321.59,180.3,318.89,177.45Zm-28.48,50.88a.5.5,0,0,0,.48-.61c-.53-1.94,4.38-7.08,5.38-8.59a13.42,13.42,0,0,0,1.4-2.58l.19.39c0,.11-.05.22-.08.34a.46.46,0,0,0,.53.59,62.44,62.44,0,0,1,3.11,7.27c1.09,8.92-5.17,18-11.7,23.8C292.71,242.81,291.29,235.29,290.41,228.33Zm-43.25-35.9c19.1-.18,49.86,18.52,31.56,36.24-.73.7,0,2.13,1,1.76a18.59,18.59,0,0,0,8.17-5.58c.35,5.69,1.55,11.3,1.42,17-.24,10.67-11.28,17.31-20.91,15.8a15.63,15.63,0,0,0,.54-5.61c3.62-2.76,5.75-8.21,5.85-12.65.11-5.29-4.72-9.64-9.15-11.6a9.91,9.91,0,0,0-11.05,2.27c-.43-4.11-2.55-6.77-5.3-9.25C249.67,211.44,256.6,196.51,247.16,192.43ZM255,242.62c-2-4.15-2.12-8.58,1.32-12,3.81-3.76,9.29-1.42,12.71,1.42a10,10,0,0,1,3.18,11.22c-.78,2.53-2.53,4.57-3.61,6.92a10.49,10.49,0,0,0-5.94-7,8.63,8.63,0,0,0-7.62,0A.74.74,0,0,0,255,242.62Zm-7.12,9.49a9.76,9.76,0,0,0-.31,1.69c-2.88,1-6-6.81-6.62-8.34-1.51-3.61-.95-7.18.16-10.86,1.67-5.45,4.29-9.76,3.89-15.28,1,.84,2.1,1.67,3.06,2.54a.65.65,0,0,0,.31.28c2.62,2.39,4.62,5.11,4.67,9.36a.77.77,0,0,0,.14.44c-2,3.47-1.16,7.95.58,11.41a.58.58,0,0,0,.33.31A14.81,14.81,0,0,0,247.9,252.11Zm68.69-28.06c-1.8,10.5-7,21.4-18.86,22.16a1,1,0,0,0,0,1.91c2.11,0,4.2,0,6.31-.18,1.16-.08-4.47,7.13-4.13,6.74a37.19,37.19,0,0,1-8.31,6.95c-2.18,1.42-6,4.14-6.9,2.35a20.7,20.7,0,0,0,0-2.72c-.1-1.08-1.77-1.48-2-.27a16.71,16.71,0,0,0-.54,5,.91.91,0,0,0,.22.59c-1.67,7.73-9,12.35-17,13.33a32.18,32.18,0,0,0-5.72.09,1.13,1.13,0,0,0,0,2.25,27.35,27.35,0,0,0,3.84.06c-7.31,4.56-17,3.51-25,6.75,2.45-4.79,2.12-11.07,4.81-15.75a1.06,1.06,0,0,0-.71-1.55c5.7-4,14.36-8.25,12.61-16.44-.22-1.06-1.86-.61-1.63.45a5.93,5.93,0,0,1,.12.83.56.56,0,0,0-.67,0c-5.43,3.2-3.7-4.17-3.39-5.32a10.13,10.13,0,0,1,6.24-6.73c4.07-1.7,8.17.23,10.53,3.66,2,2.89,1.56,6.45.45,9.65a1.2,1.2,0,0,0-.45,1.19c-.28.7-.59,1.39-.91,2-4.3,8.69-13.95,15.41-22.8,18.8-.95.36-.52,1.92.42,1.53a51.05,51.05,0,0,0,22.66-18,18.94,18.94,0,0,0,1.91-3.58c8,1.41,15.15-1.69,20.26-8,.1-.13.18-.26.27-.39a.82.82,0,0,0,1.08.2c10.94-7.08,18.37-24.34,9.81-35.37,2.42-8.87-1.64-16-8.67-21.4,13-3.14,26.3,8,18.41,21.56a1,1,0,0,0,1.4,1.4,26.3,26.3,0,0,0,3.88-2.34c.24-.19,4.07-4.4,4.22-4.4C317.59,211.06,316.74,223.13,316.59,224.05Z" transform="translate(-204.49 -177.34)"/></svg>