<svg id="Layer_1" data-name="Layer 1" xmlns="http://www.w3.org/2000/svg" viewBox="0 0 96.27 127.89"><defs><style>.cls-1{fill:#e7be66;}</style></defs><path class="cls-1" d="M285.84,236.69c-2.47-3.71-7.83-10.65-13.5-18-6.89-8.92-14-18.14-15.75-21.35-.12-.23-.29-.53-.5-.89-1.22-2.19-4.47-8-4.47-10.44H248.7c0,2.44-3.25,8.25-4.48,10.44-.2.36-.37.66-.49.89-1.74,3.21-8.87,12.43-15.75,21.35-5.68,7.36-11,14.3-13.5,18-9.41,14.16-13.42,27.45-12.26,40.61,1.89,21.39,30.16,34.93,35.28,36.53l.21.06H262.6l.22-.06c5.12-1.6,33.39-15.14,35.28-36.53C299.26,264.14,295.25,250.85,285.84,236.69Zm-4.62-1.49c0,2.33-.39,6.12-6.05,13.1-2.57,3.17-6.17,7.63-7.28,12.68-1.22-1.6-2.57-3.36-4-5.16-3.93-5.08-8.38-10.84-9.4-12.73q-.1-.21-.3-.54a31.67,31.67,0,0,1-2.36-4.87l0,0-.06-.11a64.63,64.63,0,0,1,6.38-8.31c.87-1,1.71-2,2.49-2.94a29.3,29.3,0,0,0,4-6.19v13h2.92v-7L270,239l2.87-.54-3.53-18.88c.23.3.46.61.7.91C274.33,226,278.44,231.37,281.22,235.2Zm-24,75.77H243.07c-2.94-1-18.35-8.55-19.35-19.82-.65-7.35,1.64-14.83,7-22.87.53-.81,1.34-1.93,2.31-3.23l.32,0c0-.16,0-.32,0-.48,1.56-2.08,3.47-4.56,5.35-7,3.21-4.16,6.29-8.14,8.15-10.8l-2.2,13.51,2.47.4L248.7,251V269h2.92V250.72l1.89,10.14,2.46-.46-2.55-13.67c1.85,2.66,5,6.68,8.19,10.88s6.58,8.51,8,10.67c5.34,8,7.62,15.52,7,22.87C275.6,302.42,260.19,309.94,257.25,311Zm-11-112.25.48-.86.13-.23-2.38,11.28,2.44.52,1.59-7.52v15.7h2.92V199.37l1.89,10.14,2.46-.46-2-10.7c.08.14.15.26.2.37,1.27,2.34,5,7.45,9.53,13.33.06,1.92-.11,6.28-5.11,12.4-.76.93-1.59,1.9-2.44,2.9a79.94,79.94,0,0,0-5.81,7.36,80.23,80.23,0,0,0-5.83-7.36c-.84-1-1.67-2-2.44-2.9-5.25-6.43-5.17-9.7-5.11-12.08,0-.14,0-.26,0-.4C241.28,206.12,245,201.05,246.29,198.72Zm-16,21.75v0l-3.19,17.64,2.87.52,2.38-13.17,0,7.29h2.92l-.05-13.23a31.59,31.59,0,0,0,4.4,6.81c.78.95,1.62,1.93,2.48,2.94a63.64,63.64,0,0,1,6.37,8.28,31.8,31.8,0,0,1-2.43,5l-.3.54c-1,1.89-5.46,7.65-9.39,12.73l-3.5,4.55c-1.25-4.8-4.67-9-7.13-12.07-6.06-7.47-6.06-11.29-6.06-13.57h-.27C222.2,230.94,226.16,225.82,230.29,220.47ZM205.13,277c-1-10.81,1.82-21.77,8.45-33.35l-4.18,22.17,2.87.54,3.38-17.92,0,10.32h2.5l0-17.07a35.69,35.69,0,0,0,5.33,8.4c2.9,3.57,6.78,8.38,7,13.47-.9,1.21-1.66,2.26-2.19,3.05-5.72,8.62-8.16,16.71-7.45,24.74.64,7.27,6.21,13.05,11.58,16.93C223,303.4,206.47,292.22,205.13,277Zm90.06,0c-1.34,15.18-17.85,26.36-27.27,31.29,5.38-3.88,10.94-9.66,11.58-16.93.71-8-1.72-16.12-7.45-24.74-.4-.6-.94-1.36-1.56-2.21-.26-5.4,3.89-10.54,6.95-14.31a41.22,41.22,0,0,0,4.37-6.41l0,15.43h2.5l0-10.32,3.38,17.92,2.87-.54-4.45-23.57C293.19,254.61,296.17,265.9,295.19,277ZM245.88,264a.82.82,0,1,1-.8-1A.92.92,0,0,1,245.88,264Zm10.46,0a.82.82,0,1,1-1.6,0,.82.82,0,1,1,1.6,0Zm-5.49,9.56a.82.82,0,1,1-1.6,0,.82.82,0,1,1,1.6,0Zm-6.73-60.91a.82.82,0,1,1,1.6,0,.82.82,0,1,1-1.6,0Zm10.47,0a.82.82,0,1,1,1.6,0,.82.82,0,1,1-1.6,0Zm-5.49,9.56a.82.82,0,1,1,1.6,0,.82.82,0,1,1-1.6,0Zm-31.26,40.2a.82.82,0,1,1-.6-1.13A.93.93,0,0,1,217.84,262.36Zm-7.17,8.38a.91.91,0,0,1-1,.83.93.93,0,0,1-.6-1.13.92.92,0,0,1,1-.83A.91.91,0,0,1,210.67,270.74Zm22.27-35.11a.82.82,0,1,1,.61,1.12A.92.92,0,0,1,232.94,235.63Zm-6.1,7a.82.82,0,1,1,1.58.29.82.82,0,1,1-1.58-.29Zm56.86,19.75a.93.93,0,0,1-.6,1.13,1,1,0,1,1,.6-1.13Zm7.17,8.38a.82.82,0,1,1-1.57.29.82.82,0,1,1,1.57-.29ZM267,236a.82.82,0,1,1-1-.84A.91.91,0,0,1,267,236Zm6.1,7a.92.92,0,0,1-.61,1.12.91.91,0,0,1-1-.83.82.82,0,1,1,1.58-.29Z" transform="translate(-202.02 -186)"/></svg>