<svg id="Layer_1" data-name="Layer 1" xmlns="http://www.w3.org/2000/svg" viewBox="0 0 86.4 163.5"><defs><style>.cls-1{fill:#fed700;}</style></defs><path class="cls-1" d="M292.6,237c-1-8.9-9.42-16-4.69-25.29a.34.34,0,0,0-.36-.45c-3.36.6-6.62,2.12-8.37,4.74-1.38-2.37-1.14-5-.45-7.56,1,2.36,3.28,2.71,6.09,1.63,6.16-2.36,5.23-9.32,6.8-14.55a.46.46,0,0,0-.79-.45,12.76,12.76,0,0,1-6.47,3.79c9.77-7.83,9.75-19.68,3.13-30.25a.41.41,0,0,0-.07-.11c-.32-.52-1.1,0-.89.53,4.1,10-6.3,15-11.5,21.75-4.1,5.33-4.25,14.33-3.43,20.72,0,.29.46.21.44-.07a60,60,0,0,1,.82-12.48c.88-5.37,3.6-8.73,7.47-12.36,4.46-4.18,8.57-8.4,8.11-14.11,4.72,9.84,3.39,20.26-6.63,27-.44.3-.08,1,.4.92a15.23,15.23,0,0,0,8.15-3.47c-.38,1.8-.59,3.63-.88,5.45a8.7,8.7,0,0,1-4.19,6.54c-2.3,1.38-5.59,1.91-6.06-2.23a.46.46,0,0,0-.88-.11c-1.18,3.43-1.84,7.11.17,10.33a.47.47,0,0,0,.1.1,7.86,7.86,0,0,0-.72,2.66c-5.34-1.19-7.83-7.57-7.11-12.56a.59.59,0,0,0-1.06-.42c-3.86,4.63-3.58,11.23-.65,16.25-3.39,3.2-3,10.43.52,13.19a5.59,5.59,0,0,0,2.8.78c3.78.43,6.07,1.85,7,5.65.76,3.25,0,6.64-.3,9.89-3.63-4.73-10.26-7.9-14.72-11.07-.43-.31-1,.27-.67.69,4.22,4.76,8.9,9.2,11.48,15.14,1.49,3.44,1.13,6.61-.2,10-.7,1.78-2.31,6.16-4.44,6.65a.27.27,0,0,0,.08.54c3.48-.35,6.48-9.14,6.4-12-.23-7.31-5.3-12.9-10.06-18.13,6.19,3.9,14.13,8.41,13.62,16.08a.57.57,0,0,0,1.08.28,16.51,16.51,0,0,0,1.26-4.6,34.3,34.3,0,0,1,2,6.17l-.28.5a.57.57,0,0,0,.56.84,28.17,28.17,0,0,1,.45,4.4,20.28,20.28,0,0,1-5.06.53.43.43,0,0,0-.47.49c.19,6.21-5.61,10.73-9.38,15.1,0-1.93-.08-3.66-.13-4.49a14.56,14.56,0,0,0-3.13-8.32c-3.42-4.49-7.8-7-5.86-13.44a.31.31,0,0,0-.47-.35c-4.67,3.47-3.83,9.68-3.44,14.83,0,.3.49.23.47-.08a58.3,58.3,0,0,1-.14-7.36,13.07,13.07,0,0,1,.95-4c1-2.51,1.58-3.23,1.72-2.14-.1.37-.19.75-.26,1.13-.76,3.41,1.2,6.24,3.36,8.62,3.15,3.45,5.5,6.44,5.86,11.24.17,2.27.53,8.14-1.12,11-4.66.63-8.95,2.93-9.35,8.16a.35.35,0,0,0,.7.08c.56-4.47,3.9-6.49,7.76-7.18a2.65,2.65,0,0,1-.69.4.39.39,0,0,0,.11.75,2.56,2.56,0,0,0,2.25-1.37,22,22,0,0,1,2.69-.05c-.46.36.11,1.06.6.72l.88-.63c.53.05,1.05.11,1.55.19-7,6.5-12.59,14.31-19.61,20.77s-15.15,10.28-23.73,13.78a37.85,37.85,0,0,0,2.22-7.12c6-2.4,12.91-5.75,16.38-11.36a.41.41,0,0,0,.05-.3l.5.08c.44.06.49-.57.07-.67-2.11-.5-4.51-1.27-3.55-3.92a9.6,9.6,0,0,1,2.05-3.08l.21.3c.36.55,1.16-.09.8-.64q-.13-.21-.3-.42l1-1c2-1.92,4.17-3.54,6.23-5.34a46,46,0,0,1-.06,6.21.5.5,0,0,0,1,.11,44.08,44.08,0,0,0,.05-5.39.54.54,0,0,0,.6-.21c2.77-3.84,3.64-8.16.93-12.3-3-4.54-9.27-8.52-8.87-14.54,0-.5-.69-.91-1-.4-2.3,3.92-2.13,7.16-.26,11.21.5,1.07,1,2.09,1.35,3.1a14.07,14.07,0,0,1-9.82-7.64c-3.24-5.89-1.65-11.65,1.93-16.91,2.36-3.48,5.48-6.93,6.35-11.19,1-4.85.08-10.6,4.78-13.66.34,1.16-.74,3.81-.64,4.72a21.76,21.76,0,0,0,1.47,6c2,5,5.6,8.79,3.7,14.48-2.16,6.46-8,11.3-3.86,18.33a.55.55,0,1,0,.94-.57c-5-8.2,5.55-14.62,4.39-23-.63-4.49-4.28-8.28-5.54-12.62-.73-2.54,0-4.52.3-7a.65.65,0,0,0-.46-.68.49.49,0,0,0-.74-.46c-4.43,2.78-4.32,7.56-4.85,12.28-.88,7.73-7.91,12.66-10.08,19.93-1.39,4.68.66,9.74,3.36,13.51,1.73,2.42,5.68,5.9,9,5.13a11.92,11.92,0,0,1,.33,7.58c-.75,2.67-1.78,4.9-1.64,7.73,0,.42.73.4.75,0,.26-5.32,3.44-9.33,2-14.74-1.34-4.92-4.5-8.17-2.73-13,1.45,9,15,13.08,8.27,23.57l0-.66a.48.48,0,0,0-.77-.3,104,104,0,0,0-7.76,7.19c-2.13-2.55-5.14-3.56-8.54-3.65a.46.46,0,0,0-.49.52c.42,5.86-4.68,9.67-8.57,13.21a16.6,16.6,0,0,0-2.67,2.77c-.25-6.73-5.11-14.11-11.59-14.16-.49,0-.86.63-.38,1,13.17,9.14,1.33,25.29-10.76,27.74a.45.45,0,0,0,.14.89c13-2.14,23.61-18.24,12.8-28.2,7.28,2.19,11.85,14.83,5.95,20.11a.61.61,0,0,0,.47,1.08,11.74,11.74,0,0,0,6.93-2.15c-1.11,4.91-2.5,11.86-7.64,12.86-.74.14-.57,1.31.18,1.16a8.13,8.13,0,0,0,5.61-4.48,73,73,0,0,0,23.84-13c7.8-6.49,14.32-14.75,21.13-22.24.28-.31,0-.74-.34-.82a.46.46,0,0,0-.39-.43l-.82-.13c5.24-4,9.76-9.3,11.35-15.84a27.63,27.63,0,0,0,.09-12.56C290.47,254.59,293.6,246,292.6,237Zm-65.11,81.57a9.93,9.93,0,0,0,1.88-4.74c1.28-4.41,6.49-7.08,9.41-10.47a12.77,12.77,0,0,0,2.73-5.34c.38-1.54-.35-2.21,1.67-2a8.7,8.7,0,0,1,5.89,3.36c-2.94,3.46-4.34,6.89.61,8-3.36,5.36-10.1,8.58-15.67,11.4.22-.91.42-1.79.63-2.58a.61.61,0,0,0-1-.59A8.64,8.64,0,0,1,227.49,318.57Zm57.68-45c-1.38,7.08-6.4,12.69-12,17a24.07,24.07,0,0,0-3.4,0,18,18,0,0,0,.91-5.44.31.31,0,0,0,.15-.11c2.94-3.42,6.31-6.41,8.63-10.32a11.27,11.27,0,0,0,1.49-4.82c.07-.7,3.24-1,4.66-1.13A26.28,26.28,0,0,1,285.17,273.58ZM283.64,255c-.36-.82-.74-1.63-1.15-2.44a.56.56,0,0,0-1,.45,7.65,7.65,0,0,1,0,4.57,11.86,11.86,0,0,0-2.11-4.72.4.4,0,0,0,.48-.32c.73-4.1,1.93-10.19-.91-13.8a7.37,7.37,0,0,0-5.51-2.83c-3.82-.41-5.43-2.83-5.48-6.48a8.22,8.22,0,0,1,1.67-5.45c.36,2.36,1.94,3.6,4.55,4.14a.58.58,0,0,0,.41-1c-.18-.11-.34-.25-.51-.37l-3.43-3.86a.57.57,0,0,0-.57-.61c-2.32-4-2.81-9.06-.57-13.11a14.65,14.65,0,0,0,3.18,8.67,8.92,8.92,0,0,0,4.21,2.88c.76.27-.59,5.82-.69,6.66a.63.63,0,0,0,.38.64C288.15,232.87,284.93,245,283.64,255Zm.52,1.21a.59.59,0,0,0,.68-.53c.76-6.17,2.29-12.44,1.18-18.66a13.36,13.36,0,0,0-3.36-6.6,13.82,13.82,0,0,0-3.36-2.52c-2.76-1.62-1.38-4.64-.68-7.36a.62.62,0,0,0-.33-.77,8.81,8.81,0,0,1,1-2.88.38.38,0,0,0,.09-.15,10.08,10.08,0,0,1,4.92-4c3.94-1.71,1.86,1,1.45,3.16-.72,3.63.83,7.5,2.18,10.79,2.24,5.45,4.09,10,3.77,16-.33,6.42-2.93,12.44-6,18A40,40,0,0,0,284.16,256.2Z" transform="translate(-206.39 -168.28)"/></svg>