<svg id="Layer_1" data-name="Layer 1" xmlns="http://www.w3.org/2000/svg" viewBox="0 0 165.83 164.6"><defs><style>.cls-1{fill:#e7be66;}</style></defs><path class="cls-1" d="M333.07,262.89c-5.08-4.28-10.76-5.79-17.85-4.76a50.53,50.53,0,0,0-6.12,1.42,13.51,13.51,0,0,0,.73-6.51,31.13,31.13,0,0,0-2.47-9.16l-.62-1.38c-2.66-5.84-4.11-9.59-.5-13l-.92-1v-1.34h0a16.55,16.55,0,0,0-10.42,3.53,17.09,17.09,0,0,0-6.2-10.7c-.6-.5-1.23-1-1.85-1.45-4-3.08-6.2-5-4-8.86l-1.05-.61-.29-2.1a10,10,0,0,0-5.79,3.62c-.1-26.54-20.87-40.53-31.31-42.95l-.3,1.3-1.17.67c1.15,2,3.7,7.11,2.67,11.66-.87,3.89-4.62,7.64-7.1,10.11-.9.9-1.85,1.76-2.86,2.68-3,2.73-6.08,5.54-7.79,9.25a41.36,41.36,0,0,0-2.81,7.9c-1.69-2.21-4-3.91-6.28-4.24l-.3,2.1-1,.61c2.23,3.85.07,5.78-4,8.86-.63.48-1.26.95-1.85,1.45a17,17,0,0,0-6.2,10.7A16.56,16.56,0,0,0,195,227.17h0v1.34l-.92,1c3.6,3.43,2.16,7.18-.5,13-.21.46-.42.92-.62,1.38a31.37,31.37,0,0,0-2.48,9.16,13.63,13.63,0,0,0,.73,6.51,50.62,50.62,0,0,0-6.11-1.42c-7.1-1-12.77.48-17.86,4.76l.87,1-.47,1.25a12.59,12.59,0,0,0,3.91.67,7.2,7.2,0,0,1,4.21,1.16,13.92,13.92,0,0,1,4.5,5.76c.34.78.67,1.67,1,2.61a27.18,27.18,0,0,0,3.14,6.56,10.24,10.24,0,0,0-4.83,3.11c-1.78,2-3.61,5.14-2.9,7.75l2.59-.71a.13.13,0,0,1,0-.06h0a1.33,1.33,0,0,1,.68-1.16c1.21-.72,3.82-.43,5.4.28,2.16,1,3.6,2.76,5.13,4.66.49.61,1,1.25,1.55,1.86a11.32,11.32,0,0,0,9,4.1h.53a9,9,0,0,0,3.51-.82,10.89,10.89,0,0,0,.14,5,4.57,4.57,0,0,0,2.69,3.16l.48-1.25,1.33.16c.45-3.74,4.51-4.61,6.23-4.81a85.91,85.91,0,0,0,14.29-2.57c7.11-2.08,11.47-4.71,14.19-7.3-3.51,13.55-8.8,26.09-16.73,35l2,1.77c9.86-11.12,15.77-27.49,19.25-44.52.09-.39.16-.74.23-1h0a251.94,251.94,0,0,0,4.25-38.28,374.07,374.07,0,0,0-1.25-47.13,323,323,0,0,1,2.44,46.93,263.63,263.63,0,0,1-3.49,38.47l-.09,0a2,2,0,0,0,0,.24c-2.92,16.8-8.15,34-17.39,45.82l2.11,1.65c8.72-11.16,14-26.84,17.08-42.56,2.07,3.57,6.58,7.84,17.09,10.91a85.8,85.8,0,0,0,14.28,2.57c1.73.2,5.78,1.07,6.24,4.81l1.33-.16.48,1.25a4.62,4.62,0,0,0,2.69-3.16,11.17,11.17,0,0,0,.14-5,8.89,8.89,0,0,0,3.5.82h.53a11.35,11.35,0,0,0,9-4.1c.54-.61,1.05-1.25,1.55-1.86,1.52-1.9,3-3.69,5.13-4.66,1.58-.7,4.18-1,5.39-.28A1.34,1.34,0,0,1,321,292h.05s0,0,0,.06l2.58.71c.72-2.61-1.11-5.8-2.9-7.75a10.19,10.19,0,0,0-4.83-3.11,26.85,26.85,0,0,0,3.15-6.56c.35-.94.67-1.83,1-2.61a13.89,13.89,0,0,1,4.49-5.76,7.22,7.22,0,0,1,4.21-1.16,12.6,12.6,0,0,0,3.92-.67l-.47-1.25ZM229.55,298a84.27,84.27,0,0,1-13.85,2.48c-3.78.44-6.55,2.14-7.84,4.69a.14.14,0,0,0,0-.06,9.42,9.42,0,0,1,1.15-7l-.08-.05c.39-.37.78-.71,1.19-1l-1.66-2.1c-.59.47-1.12.95-1.63,1.43-1.56,1.45-2.8,2.59-5.27,2.67a8.86,8.86,0,0,1-7.46-3.18c-.5-.57-1-1.18-1.47-1.77-1.65-2.06-3.37-4.19-6.12-5.42a11.4,11.4,0,0,0-5.74-.84,9.68,9.68,0,0,1,.81-1c1.57-1.71,3.41-2.66,4.69-2.41l.09-.5a7.79,7.79,0,0,0,5,1.67,10,10,0,0,0,1.07-.06l-.27-2.66c-4.66.47-6.39-3.21-8.33-8.46-.36-1-.7-1.9-1.08-2.76a16.49,16.49,0,0,0-5.4-6.86,9.69,9.69,0,0,0-5.61-1.65l-.28,0c3.84-2.39,8.06-3.12,13.29-2.36,5.74.84,14.46,3.79,15.89,7.71l1.26-.46h1.34a16,16,0,0,0-1.15-7.12,6.27,6.27,0,0,0-1.61-2.19,48.52,48.52,0,0,1,8.29,4.08l.21.12c4.65,2.72,7.68,6,9,9.67,1.18,3.27,2.45,9.43-2.27,14a6.78,6.78,0,0,1-5.07,1.74,10,10,0,0,1-6.86-3.3,5.19,5.19,0,0,1-.93-5.62c.52-1,2.58-2.27,3.17-2.13a.28.28,0,0,1-.11-.08l2.37-1.23a2.52,2.52,0,0,0-2.3-1.37h0c-2.09,0-4.72,2.12-5.48,3.55a7.8,7.8,0,0,0,1.26,8.63,12.54,12.54,0,0,0,8.76,4.22l.52,0a9.34,9.34,0,0,0,6.53-2.5c4.25-4.06,5.32-10.18,2.94-16.79-1.56-4.31-5-8-10.19-11.07l-.21-.12c-5.15-3-10.85-5.92-14.17-4.7l.46,1.26-1.08.79a9.12,9.12,0,0,0,2.18,2A5.6,5.6,0,0,1,199.6,262a9.69,9.69,0,0,1,.6,1.85,22.44,22.44,0,0,0-5.49-3.05l.3-.37c-3.48-2.8-1.61-10.95.39-15.43.2-.46.41-.91.62-1.36,2.06-4.53,4.18-9.19,1.92-13.45,4,.81,8.48,3.29,8.62,8.26l2.68-.07a10.17,10.17,0,0,0-.54-3l.12-.06c-2.22-4.35.67-10.07,4.52-13.25.57-.47,1.17-.93,1.78-1.39,3.14-2.4,6.95-5.31,5.65-10a11.5,11.5,0,0,1,3.81,5.12,13.07,13.07,0,0,0,.22,1.94l.18,0a4.39,4.39,0,0,1,0,.73l2.65.35a8.2,8.2,0,0,0-.34-3.36c0-2.83,1-6.51,3-11,1.48-3.21,4.36-5.85,7.16-8.39,1-.9,2-1.82,2.94-2.76,3-3,6-6.18,7.33-9.79a366.45,366.45,0,0,1,3.12,60.32c-2.48-1.66-6.47-6.37-10.37-12.34-5.28-8.08-7.32-13.57-7-14.74l-2.6-.62c-1.19,4.95,12.81,27.67,19.9,30.67a246.89,246.89,0,0,1-4.25,37.7C245.8,287.77,243.86,293.85,229.55,298Zm99.06-34.87a9.71,9.71,0,0,0-5.61,1.65,16.54,16.54,0,0,0-5.39,6.86c-.38.86-.72,1.78-1.08,2.76-1.94,5.25-3.68,8.92-8.34,8.46l-.26,2.66a9.87,9.87,0,0,0,1.07.06,7.83,7.83,0,0,0,5-1.67l.09.5c1.28-.25,3.12.7,4.68,2.41a9.78,9.78,0,0,1,.82,1,11.44,11.44,0,0,0-5.75.84c-2.75,1.23-4.46,3.36-6.12,5.42-.47.59-1,1.2-1.47,1.77a8.84,8.84,0,0,1-7.46,3.18c-2.47-.08-3.7-1.22-5.27-2.67-.51-.48-1-1-1.63-1.43l-1.65,2.1c.41.33.79.67,1.19,1l-.09.05a9.42,9.42,0,0,1,1.16,7l0,.06c-1.28-2.55-4.05-4.25-7.84-4.69A84,84,0,0,1,270.77,298c-14-4.1-16.17-10-16.92-13.34.7-4.07,1.26-8.11,1.72-12,4.53-.39,12.45-9.08,15.7-12.87,5-5.82,10.82-13.89,10.82-17.48h-2.68c0,1.9-3.8,8.31-10.17,15.74-6.11,7.12-11.11,11.15-13.36,11.83.93-8.9,1.32-17.14,1.45-23.77,0-.42,0-.84,0-1.26l.37,1.43c4.53-1.18,13.9-18.08,13.06-21.87l-2.62.57c.16.85-1.23,4.81-4.23,10s-5.46,7.91-6.56,8.54c.37-30.39-3.49-57.66-7.89-71.18,11.18,5.47,26.33,20.21,23.18,45h0a7.3,7.3,0,0,0,0,1.48l2.66-.35c-.33-2.46,1.77-6,4.18-7.75-1.29,4.66,2.52,7.57,5.66,10,.6.46,1.2.92,1.77,1.39,3.85,3.18,6.75,8.9,4.53,13.25l.12.06a10.17,10.17,0,0,0-.54,3l2.68.07c.13-5,4.59-7.45,8.61-8.26-2.25,4.26-.13,8.92,1.93,13.45.21.45.41.9.62,1.36,2,4.48,3.87,12.63.38,15.43l.3.37a22.44,22.44,0,0,0-5.49,3.05,10.51,10.51,0,0,1,.61-1.85,5.53,5.53,0,0,1,2.13-2.17,9.08,9.08,0,0,0,2.17-2l-1.08-.79.46-1.26c-3.31-1.22-9,1.69-14.16,4.7l-.21.12c-5.21,3-8.64,6.76-10.19,11.07-2.39,6.61-1.31,12.73,2.94,16.79a9.32,9.32,0,0,0,6.52,2.5l.53,0a12.52,12.52,0,0,0,8.75-4.22,7.8,7.8,0,0,0,1.27-8.63c-.76-1.43-3.4-3.55-5.48-3.55h0a2.53,2.53,0,0,0-2.31,1.37l2.38,1.23a.25.25,0,0,1-.12.08c.6-.13,2.66,1.15,3.18,2.13a5.19,5.19,0,0,1-.93,5.62,10,10,0,0,1-6.86,3.3,6.77,6.77,0,0,1-5.07-1.74c-4.73-4.52-3.45-10.68-2.27-14,1.33-3.7,4.37-6.95,9-9.67l.21-.12a48.52,48.52,0,0,1,8.29-4.08,6.29,6.29,0,0,0-1.62,2.19,16.14,16.14,0,0,0-1.14,7.12h1.33l1.26.46c1.44-3.92,10.16-6.87,15.89-7.71,5.24-.76,9.45,0,13.3,2.36ZM248,271.9v2.67c-5.58,0-16.92-11.79-20.26-15.4-6.48-7-14.05-16.69-14.05-20.92h2.67c0,2.27,4.68,9.74,13.35,19.1C237.64,265.92,245.16,271.9,248,271.9Z" transform="translate(-167.24 -167.65)"/></svg>