<svg id="Layer_1" data-name="Layer 1" xmlns="http://www.w3.org/2000/svg" viewBox="0 0 297.09 261.71"><defs><style>.cls-1{fill:#e7be66;}</style></defs><path class="cls-1" d="M404.66,268.86a115.82,115.82,0,0,0-45.48.81c5.51-18.41,4.45-29.66-3.67-44.3-7.16-12.91-19.6-24.82-30.59-35.34-2.25-2.15-4.44-4.26-6.53-6.3q-4.53-4.46-9-8.78c-9.46-9.2-18.4-17.89-27.49-27.64L279.74,145c-11.4-12.13-22.17-23.59-20.06-40.58l-2.17-.27a11.75,11.75,0,0,0-2.78,0l-2.17.27c2.12,17-8.66,28.45-20.06,40.59l-2.16,2.3c-9.11,9.76-18.06,18.46-27.54,27.67q-4.44,4.32-9,8.75c-2.09,2.05-4.28,4.15-6.54,6.31-11,10.51-23.42,22.43-30.58,35.33-8.12,14.63-9.16,25.88-3.65,44.31a115.72,115.72,0,0,0-45.5-.82l.43,2.44v2.48c8.35,0,13.56,19.2,17.75,34.63,2.93,10.8,5.7,21,9.57,26.31,12.82,17.64,25.24,27.29,38,29.49a100.36,100.36,0,0,0,17,1.57,69.87,69.87,0,0,0,23-3.72c15.82-5.41,34.71-19.9,41.83-25.35l1-.75,1,.75a267.11,267.11,0,0,0,22.26,15.61,2.92,2.92,0,0,0,.71.53l.09,0a100.77,100.77,0,0,0,18.76,9.24,69.83,69.83,0,0,0,23,3.72,100.54,100.54,0,0,0,17-1.57c12.72-2.2,25.14-11.85,38-29.49,3.86-5.31,6.63-15.51,9.56-26.31,4.19-15.43,9.41-34.63,17.76-34.63V271.3Zm-236.41-37c6.28-9.63,17.51-18.78,27.43-26.86,2.09-1.71,4.14-3.37,6.08-5q4.17-3.48,8.27-6.86c8.8-7.28,17.11-14.15,25.6-21.89l2-1.8c7.56-6.85,15.29-13.86,18.5-22.65,3.2,8.79,10.93,15.8,18.49,22.64l2,1.81c8.48,7.73,16.78,14.6,25.56,21.87,2.75,2.27,5.51,4.55,8.3,6.88,1.94,1.62,4,3.29,6.08,5,9.91,8.07,21.15,17.23,27.43,26.86,7.27,11.14,7.82,19.25,2.18,34.09a94.5,94.5,0,0,0-23.79,9.26c3.05-9.82,5.54-23.8,1-31.86-4-7-18.72-17-34.34-27.49C275.9,207,258.12,195,257.35,190.23a4.4,4.4,0,0,0,0-.89v-.14h-4.58v.16a4.6,4.6,0,0,0,0,.91c-.78,5.08-18.9,17.82-32.28,27.22-14.21,10-27.63,19.44-31.58,25.77-4.58,7.34-2.64,20.76.92,31.91a94.55,94.55,0,0,0-23.73-9.24C160.45,251.08,161,243,168.25,231.84ZM294.81,336.58c-.76,2.52-1.92,6.12-2.59,7.94-2.94-1.41-5.91-3-8.82-4.75l.92-2.21c1.46-3.49,2.43-5.86,2.71-6.76A41.92,41.92,0,0,0,289.2,320l0-.55c.35-7,.71-14.29-3.83-20.66-2.75-3.84-7.46-7.24-12.45-10.82-6.86-4.95-14-10.06-14.42-15.57l-2.61.21-2.62-.22c-.46,5.52-7.56,10.63-14.42,15.58-5,3.58-9.7,7-12.45,10.82-4.54,6.35-4.18,13.6-3.84,20.61l0,.6a41.44,41.44,0,0,0,2.18,10.81c.36,1.2,1.89,6,2.76,8.69-2.57,1.53-5.19,3-7.8,4.31-.68-1.95-1.66-5-2.33-7.22-1.57-5.2-2.62-9-2.86-14l0-.82c-.46-9.42-.9-18.31,4.37-25.68,3.35-4.7,9.69-9.26,16.4-14.09,8.33-6,16.86-12.14,20.83-19.44,4,7.3,12.5,13.45,20.83,19.44,6.7,4.83,13,9.39,16.39,14.08,5.27,7.39,4.83,16.28,4.37,25.7l0,.81C297.43,327.59,296.38,331.38,294.81,336.58Zm-93.95,6.11c-9,3.07-18.13,3.54-29.7,1.54-9-1.56-18-8.67-27.51-21.75-2.63-3.61-4.73-11.34-7-19.52-2.95-10.89-6-22-11.17-27.24,24.29-2.6,46.59,4.45,61.93,19.78,6.53,6.53,12.2,19.53,5.87,27-2.42,2.83-6.19,4.24-10.63,4a19.35,19.35,0,0,1-14.56-8.16c-.86-1.29-1-3.72-.35-5.92a7.22,7.22,0,0,1,3.82-4.7l-1.55-3.59a10.9,10.9,0,0,0-6,7.17c-1,3.34-.67,6.95.83,9.21a23.07,23.07,0,0,0,17.6,9.89c.43,0,.86,0,1.28,0a16,16,0,0,0,12.56-5.4,15.14,15.14,0,0,0,3.37-7c0,1.49.11,3,.19,4.48l0,.65a46.69,46.69,0,0,0,2.42,12c.87,2.86,1.48,4.85,2,6.24C203.15,341.83,202,342.3,200.86,342.69Zm57.23-18.55s-2.16-1.9-2.64-1.74c-.49-.16-2.66,1.74-2.66,1.74l-1.34,1c-3.8,2.92-11.08,8.49-19.35,13.77-.87-2.72-2-6.44-2.36-7.44a37.55,37.55,0,0,1-2-9.61l0-.6c-.33-6.73-.61-12.54,2.92-17.49,2.28-3.18,6.67-6.34,11.31-9.69,5.48-3.94,11.08-8,14.15-12.76,3.06,4.77,8.66,8.82,14.14,12.76,4.64,3.34,9,6.5,11.31,9.69,3.54,5,3.25,10.79,2.92,17.53l0,.56a37.21,37.21,0,0,1-2,9.61c-.22.73-1.61,4.08-2.53,6.3l-.63,1.5c-8.49-5.39-16-11.15-19.89-14.13C258.93,324.77,258.49,324.43,258.09,324.14Zm113.62-20.73c-2.08,7.68-4,14.94-6.53,18.34-8.93,12.29-17.38,19-25.85,20.44-10.87,1.88-19.47,1.43-27.9-1.46-.7-.24-1.41-.5-2.13-.79.53-1.3,1.15-3.31,2.07-6.35a44.52,44.52,0,0,0,2.28-11.27l0-.61,0-.67a14.06,14.06,0,0,0,2,3.08,15.09,15.09,0,0,0,11.8,5.07c.4,0,.8,0,1.21,0a21.63,21.63,0,0,0,16.53-9.29c1.41-2.12,1.72-5.52.79-8.65a10.23,10.23,0,0,0-5.67-6.75l-1.44,3.38a6.8,6.8,0,0,1,3.58,4.41c.61,2.07.48,4.36-.32,5.57a18.16,18.16,0,0,1-13.69,7.66c-4.17.25-7.72-1.08-10-3.75-5.95-7-.62-19.2,5.51-25.33,14.42-14.41,35.38-21,58.2-18.6C377.34,282.69,374.49,293.17,371.71,303.41Z" transform="translate(-107.57 -104.07)"/></svg>