<svg id="Layer_1" data-name="Layer 1" xmlns="http://www.w3.org/2000/svg" viewBox="0 0 368.92 436.73"><defs><style>.cls-1{fill:#fed700;}</style></defs><path class="cls-1" d="M322.37,305.72l-11.9,9.34s5.38-9.34,1.42-25.49-22.1-35.68-22.1-35.68l-14.72,21.52V243.12c-7.93-14.15-25.48-32.27-25.49-32.28h0S232,229,224.09,243.12v32.29l-14.73-21.52s-18.13,19.54-22.09,35.68,1.41,25.49,1.41,25.49l-11.89-9.34S166.87,340.55,193.5,359H179.05s12.18,29.18,49.85,28.89c0,0-31.44-9.63-34.55-39.08s16.71-54.1,32.57-67.13,22.65-24.34,22.66-24.35,6.8,11.33,22.65,24.35,35.69,37.67,32.57,67.13-34.55,39.08-34.55,39.08c37.67.29,49.85-28.89,49.85-28.89H305.65C332.28,340.55,322.37,305.72,322.37,305.72Z" transform="translate(-65.12 -21.05)"/><path class="cls-1" d="M238.36,373.79s-15.86-27,15.68-36.45c0,0-11.33,26.82,2.83,32.29s28.89-11.33,28.89-11.33l-11.33.38s17.94-11.52,11.33-40l-8.88,9.44s.38-25.49-22.65-45.69c0,0-27.57,15.67-21.53,44.18,0,0-8.5-10.2-7.18-20.77,0,0-17.74,13.6-4.72,42.67a10.12,10.12,0,0,1-8.87-2.26S211.55,365.1,238.36,373.79Z" transform="translate(-65.12 -21.05)"/><path class="cls-1" d="M249.58,377.94s-25.31,14.35-26.06,32.1,26.06,27.19,26.06,27.19,26.81-9.44,26-27.19S249.58,377.94,249.58,377.94Z" transform="translate(-65.12 -21.05)"/><path class="cls-1" d="M239.2,443.84s-1.89,15.67-13,13.78-16.24-37.38-37.95-28.13c0,0,15.48-16.24,25.49-6.23S227.87,442.9,239.2,443.84Z" transform="translate(-65.12 -21.05)"/><path class="cls-1" d="M260,443.84s1.89,15.67,13,13.78,16.24-37.38,37.95-28.13c0,0-15.48-16.24-25.49-6.23S271.28,442.9,260,443.84Z" transform="translate(-65.12 -21.05)"/><path class="cls-1" d="M228.19,161.46s-10.74-26.23,1.5-41.72,33-25,30-46c0,0,27.74,15.49,18.24,47,0,0,25.74-4,15.74-45l-10.49,7s5.25-7.49-3.5-32.23l-10,10.5s7.49-16.49-11-40c0,0-10.49,11-10,25.49s5,23.73-.5,30L247.93,65s-14.49,5.25-14.24,37.23c0,0-6.75-2.5-6-11C227.69,91.26,194.44,118.49,228.19,161.46Z" transform="translate(-65.12 -21.05)"/><path class="cls-1" d="M258.67,183s-31.23-16.49-28.23-45.22,20.24-26.73,26.74-38,6.49-18.49,6.49-18.49,16,15.24,10.25,33.23,15.48,16.49,25-1.74c0,0-2.75,23.23-22.24,20.73s-13.74-15.49-26.48-12S237.19,162.71,258.67,183Z" transform="translate(-65.12 -21.05)"/><path class="cls-1" d="M257.43,128.49s-6.5-1-5.5,15.48a81.78,81.78,0,0,0,6.74,28.24S246,159,246.68,141,257.43,128.49,257.43,128.49Z" transform="translate(-65.12 -21.05)"/><path class="cls-1" d="M298,402.3s68-2,57.23-102.95c0,0,24.92,65.56-24.93,99,0,0,53.82-25.49,43.62-92.33s-31.15-60.61-18.69-71.37,40.78,40.78,36.82,83.83-29.81,74.21-58,83.84c0,0,53.43-4.53,67-69.11s-20.39-91.77-40.78-111c0,0-24.36,16.42-30-11.33s14.73-42.21,9.63-78c0,0,28,22.23,24.93,61.6,0,0,11.33,6.23,11.89-16.15,0,0,24.36,20.19,16.43,55.8,0,0,5.11,5.1,11-13.59,0,0,11,22.23,7.08,47.08l11.89-15.93s11.9,32.29-4.53,60.61L434,299.35s1.7,32.71-21,53.1l14.72-3.4s-16.09,34-46.44,41.35l14.72,4.53S341.07,432.89,298,402.3Z" transform="translate(-65.12 -21.05)"/><path class="cls-1" d="M349,285s-20.27-48.71-47.24-62.31-32.07-28.89-17.9-44.47,4-28,4-28,22.92-3.88,20.95,19.83C305.14,214.23,350.74,248.22,349,285Z" transform="translate(-65.12 -21.05)"/><path class="cls-1" d="M201.11,402.3s-68-2-57.23-102.95c0,0-24.92,65.56,24.93,99,0,0-53.82-25.49-43.62-92.33s31.15-60.61,18.69-71.37-40.78,40.78-36.82,83.83,29.81,74.21,58,83.84c0,0-53.43-4.53-67-69.11s20.39-91.77,40.79-111c0,0,24.35,16.42,30-11.33s-14.73-42.21-9.63-78c0,0-28,22.23-24.93,61.6,0,0-11.33,6.23-11.89-16.15,0,0-24.36,20.19-16.43,55.8,0,0-5.11,5.1-11.05-13.59,0,0-11,22.23-7.08,47.08L75.91,251.62S64,283.91,80.44,312.23L65.15,299.35s-1.7,32.71,20.95,53.1l-14.72-3.4s16.09,34,46.45,41.35l-14.73,4.53S158.08,432.89,201.11,402.3Z" transform="translate(-65.12 -21.05)"/><path class="cls-1" d="M150.11,285s20.27-48.71,47.24-62.31,32.07-28.89,17.91-44.47-4-28-4-28-22.92-3.88-20.95,19.83C194,214.23,148.41,248.22,150.11,285Z" transform="translate(-65.12 -21.05)"/></svg>